<svg xmlns="http://www.w3.org/2000/svg" viewBox="0 0 150 37"><path fill="#FFA726" d="M68.9 30.3s-1 .3-2.4 0c-1.3-.3-2.6-.8-2.6-2.1v-12H69l-1.2-6.3h-3.9V.6L54.4 2v15.2c-2-5.6-7.4-9.7-13.7-9.7-6.2 0-11.5 3.9-13.6 9.4v-4.4s-2-4.4-11.4-4.4c-2.2 0-4.3.3-6.2.7V.6L0 2v34.2h9.5V15.8c2.1-.4 3.5-.5 5.4-.1 1.4.2 2.6.8 2.6 2.7v17.9H27v-9c2.1 5.5 7.4 9.4 13.6 9.4 6.3 0 11.7-4 13.7-9.6v6.6s3.6 2.6 9.3 2.6c5.7 0 6.9-.9 6.9-.9l-1.6-5.1zm-28.2-1.5c-4.1 0-5.9-3.4-5.9-6.7 0-3.3 1.8-6.7 5.9-6.7 4.1 0 5.9 3.4 5.9 6.7 0 3.3-1.8 6.7-5.9 6.7"/><path fill="#6F9FEC" d="M87.5 0c-2.7 0-4.9 2.2-4.9 4.9s2.2 4.9 4.9 4.9 4.9-2.2 4.9-4.9S90.2 0 87.5 0m-4.8 35.7h9.5V12h-9.5v23.7zm-11.9-.1h9.5V.6L70.8 2v33.6zm64.5-5.5c-2.8-.7-4.3-2.1-4.9-4.1h19.4v-2.8c0-9.8-6.7-15.7-14.4-15.7-6.1 0-11.4 3.8-13.5 9.2v-4.2s-3.5-4.2-11.7-4.6c-8.2-.4-15.4 1.3-15.4 1.3v26.9h9.5V15.8c2.2-.4 3.5-.5 5.4-.2 1.4.2 2.6.8 2.6 2.8v17.7h9.5v-8.7c2.1 5.4 7.4 9.2 13.5 9.2 5.4 0 9.3-1.5 12-4.9l-3.3-3.2c-3.2 2.1-6.9 2-8.7 1.6m.1-15.3c3.8 0 5.4 2.8 5.6 5.2h-11.4c.2-2.5 2-5.2 5.8-5.2"/></svg>